<svg xmlns="http://www.w3.org/2000/svg" viewBox="0 0 24.28 33.69"><defs><style>.cls-1{fill:#472218;}</style></defs><title>Element 27</title><g id="Ebene_2" data-name="Ebene 2"><g id="Elements"><path class="cls-1" d="M0,20.88H0Z"/><path class="cls-1" d="M23.08,20.4a1.5,1.5,0,0,1-1.09,0,3.62,3.62,0,0,1-1.21-1.08c-.33-.43-1.1-1.05-1.5-1.55a7.26,7.26,0,0,0-1.64-1.39,13,13,0,0,0-1.55-.77c-.23-.05-.13.63-.07.76s.58.92.67,1.08a1.74,1.74,0,0,1-.28,1.27c-.29.37-.74,1.17-1.06,1.16a3.72,3.72,0,0,1-1.32-1,1,1,0,0,0-.9-.18c-.24.13-.45.49-.77.31s-.63-.57-.87-.51-.94.56-1.23.66a2.27,2.27,0,0,1-1.39,0c-.24-.19-.6-.58-.84-.81s-.58-.35-.48-.82A2.62,2.62,0,0,1,7.72,17a1.5,1.5,0,0,0,.07-.83,1.1,1.1,0,0,0-.25-.47,1.38,1.38,0,0,0-.45.42c-.12.22-.75.48-.9.65a14.26,14.26,0,0,1-1.44,2.52,14.77,14.77,0,0,1-2.21,1.35,5.17,5.17,0,0,1-2.52.3c.24.22,2.84,3.06,3.69,2.8a1.9,1.9,0,0,0,1.15-.83A26.38,26.38,0,0,1,8.16,21c.24,0,.3.15.14.22a16.59,16.59,0,0,0-1.49.87c-.21.18-1.31.65-1.55.89a6.83,6.83,0,0,0-1.11,2.59c-.06.8-.24,1-.19,1s.48-.14.85-.2a3.9,3.9,0,0,0,1.38-.53c.11-.17.65-1.47.77-1.66a1.59,1.59,0,0,1,.53-.6c.24-.13.66-.31.73-.26s-.57.66-.76,1a11.82,11.82,0,0,0-1,2.4c-.06.49-.39,2.65-.33,2.95s.36.18.78-.18.67-.76,1.21-.83a1.62,1.62,0,0,0,1.12-.39,8.07,8.07,0,0,1,1.38-1c.31-.15.81-.61,1.49,0a10.82,10.82,0,0,0,1.4,1.24c.42.21,1.54,1.25,1.81,1.36s.72.32.86.22a3.34,3.34,0,0,0,.33-1.72,13.1,13.1,0,0,1-.39-2A3.7,3.7,0,0,0,15.82,25a5.52,5.52,0,0,0-.39-.7c-.11-.11.73.25.9.49s.14.56.43.87a3.11,3.11,0,0,0,1,.89,3.58,3.58,0,0,0,1.36.58c.45,0,1.14.19,1.28.16a6.62,6.62,0,0,0,.08-2.11,5.69,5.69,0,0,1-.27-1.08c0-.45,0-.78-.3-.92s-1-.38-1.4-.55a13.77,13.77,0,0,1-1.33-.55c-.12-.12-.73-.31-.75-.44s.26-.12.58,0a9.5,9.5,0,0,0,1.32.51,6.89,6.89,0,0,1,1.44.41c.43.18.71.6,1.13.48A4.39,4.39,0,0,0,22.69,22c.32-.46.81-.94.94-1.22a7.3,7.3,0,0,1,.47-.83A7,7,0,0,0,23.08,20.4Z"/><path class="cls-1" d="M1.44,13.09a20.4,20.4,0,0,0,1.93,2.63,4.12,4.12,0,0,0,2.24.88l.1,0a.49.49,0,0,1,.1-.16A1.92,1.92,0,0,1,6.32,16a3.56,3.56,0,0,0,.35-.23,1.87,1.87,0,0,1,.61-.58l.35-.2.28.3a1.48,1.48,0,0,1,.38.75,2.08,2.08,0,0,1-.1,1,2.82,2.82,0,0,1-.11.32l0,.21a.3.3,0,0,0,.13.19,1.56,1.56,0,0,1,.2.16l.3.3c.18.18.36.37.51.49h0a2.07,2.07,0,0,0,.28,0,2.64,2.64,0,0,0,.64-.08,3.76,3.76,0,0,0,.52-.29,3.47,3.47,0,0,1,.75-.38h.17a1.34,1.34,0,0,1,.79.38l.2.16.07-.05a1.17,1.17,0,0,1,.3-.22,1,1,0,0,1,.47-.1c.24,0,.88.08,1.1.48a5.19,5.19,0,0,0,.85.7,5,5,0,0,0,.43-.57l.27-.36a1.52,1.52,0,0,0,.2-.8h0a3.71,3.71,0,0,1-.27-.4c-.16-.26-.33-.53-.37-.61a1.58,1.58,0,0,1,0-1.2l.15-.24.36,0h.13a2.72,2.72,0,0,1,.45.18.73.73,0,0,1,.73,0,6.81,6.81,0,0,1,.89.93c.12.08.25.19.39.3a1.25,1.25,0,0,0,1.13.12c1.31-.44,2.87-2.51,2.82-3.56S22,10,22.06,9.18s.21-4.49-.66-4.84-4-2.24-5-2.64S14,0,13.4,0a13.26,13.26,0,0,0-3.07.61s-5.54,2.61-6,2.89S6.54,7.13,6.56,7.34s2.35.16,2.6,1,.68,2.3-.13,3-2,1.48-2.61.94S4.33,11,4.24,10.34a2.92,2.92,0,0,1,1-2c.34-.12-2-4-2.15-4.09s-.92-.11-1.22.7S.15,8.21.46,9.11,1.08,12.38,1.44,13.09ZM14.57,9.21c.14-.52,1.71-1.29,2-1.31a2.26,2.26,0,0,1,2.16,1.51,1.74,1.74,0,0,1,0,1.85,4,4,0,0,1-2.36,1.18c-.65.07-1.43-1-1.63-1.22A3.92,3.92,0,0,1,14.57,9.21Zm-2.92,4.34a.94.94,0,0,1,.75-.1c.38.08.94.89,1.07,1.26s-.13,1.14-.43,1.23a12.78,12.78,0,0,1-1.55.46c-.56.11-.7-.69-.72-1.19A2.18,2.18,0,0,1,11.65,13.55Z"/><path class="cls-1" d="M23.08,20.4a1.5,1.5,0,0,1-1.09,0,3.62,3.62,0,0,1-1.21-1.08c-.33-.43-1.1-1.05-1.5-1.55a7.26,7.26,0,0,0-1.64-1.39,13,13,0,0,0-1.55-.77c-.23-.05-.13.63-.07.76s.58.92.67,1.08a1.74,1.74,0,0,1-.28,1.27c-.29.37-.74,1.17-1.06,1.16a3.72,3.72,0,0,1-1.32-1,1,1,0,0,0-.9-.18c-.24.13-.45.49-.77.31s-.63-.57-.87-.51-.94.56-1.23.66a2.27,2.27,0,0,1-1.39,0c-.24-.19-.6-.58-.84-.81s-.58-.35-.48-.82A2.62,2.62,0,0,1,7.72,17a1.5,1.5,0,0,0,.07-.83,1.1,1.1,0,0,0-.25-.47,1.38,1.38,0,0,0-.45.42c-.12.22-.75.48-.9.65a14.26,14.26,0,0,1-1.44,2.52,14.77,14.77,0,0,1-2.21,1.35,5.17,5.17,0,0,1-2.52.3c.24.22,2.84,3.06,3.69,2.8a1.9,1.9,0,0,0,1.15-.83A26.38,26.38,0,0,1,8.16,21c.24,0,.3.15.14.22a16.59,16.59,0,0,0-1.49.87c-.21.18-1.31.65-1.55.89a6.83,6.83,0,0,0-1.11,2.59c-.06.8-.24,1-.19,1s.48-.14.85-.2a3.9,3.9,0,0,0,1.38-.53c.11-.17.65-1.47.77-1.66a1.59,1.59,0,0,1,.53-.6c.24-.13.66-.31.73-.26s-.57.66-.76,1a11.82,11.82,0,0,0-1,2.4c-.06.49-.39,2.65-.33,2.95s.36.18.78-.18.67-.76,1.21-.83a1.62,1.62,0,0,0,1.12-.39,8.07,8.07,0,0,1,1.38-1c.31-.15.81-.61,1.49,0a10.82,10.82,0,0,0,1.4,1.24c.42.21,1.54,1.25,1.81,1.36s.72.32.86.22a3.34,3.34,0,0,0,.33-1.72,13.1,13.1,0,0,1-.39-2A3.7,3.7,0,0,0,15.82,25a5.52,5.52,0,0,0-.39-.7c-.11-.11.73.25.9.49s.14.56.43.87a3.11,3.11,0,0,0,1,.89,3.58,3.58,0,0,0,1.36.58c.45,0,1.14.19,1.28.16a6.62,6.62,0,0,0,.08-2.11,5.69,5.69,0,0,1-.27-1.08c0-.45,0-.78-.3-.92s-1-.38-1.4-.55a13.77,13.77,0,0,1-1.33-.55c-.12-.12-.73-.31-.75-.44s.26-.12.58,0a9.5,9.5,0,0,0,1.32.51,6.89,6.89,0,0,1,1.44.41c.43.18.71.6,1.13.48A4.39,4.39,0,0,0,22.69,22c.32-.46.81-.94.94-1.22a7.3,7.3,0,0,1,.47-.83A7,7,0,0,0,23.08,20.4Z"/><path class="cls-1" d="M3.64,27.24c.13,0,.09-.21,0-.29s-.26-.35-.3-.38-.13,0-.13,0a2.16,2.16,0,0,1-.12.39c-.05.09-.05.23.08.22S3.51,27.28,3.64,27.24Z"/><path class="cls-1" d="M2.81,29.15a3,3,0,0,0,.3-.91c.06-.21.16-.54.09-.68a1.53,1.53,0,0,0-.62-.32,1.53,1.53,0,0,0-.78.19c-.11.09-.15.43-.17.64a1.89,1.89,0,0,1-.1.69c-.09.18-.29.45-.42.48s0,.27.14.3a1.13,1.13,0,0,0,.72.12A2.23,2.23,0,0,0,2.81,29.15Z"/><path class="cls-1" d="M5.93,30.41s-.11,0-.11,0a.31.31,0,0,0,.1.29c.1.06.34.21.38.08s.2-.35.2-.39S6,30.45,5.93,30.41Z"/><path class="cls-1" d="M5.63,30.92c-.27.07-.53.3-.73.36a1.14,1.14,0,0,0-.52.3,2.74,2.74,0,0,0-.38.74c0,.16.09.33.3.18s.35,0,.49.1a1.11,1.11,0,0,0,.6.38c.26,0,.59.14.72,0a2.36,2.36,0,0,0,.23-1c0-.26.14-.5-.07-.69S5.91,30.85,5.63,30.92Z"/><path class="cls-1" d="M17,31.1c.13-.11.33-.16.17-.39a1.05,1.05,0,0,0-.63-.42c-.12,0-.3.13-.3.18a1.06,1.06,0,0,0,0,.56C16.4,31.28,16.91,31.21,17,31.1Z"/><path class="cls-1" d="M18.32,31.9a2.23,2.23,0,0,1-.8-.3c-.17-.15-.34-.33-.44-.27s-.31.24-.31.34a5,5,0,0,0,.15,1.17c.1.14.09.37.41.54s.66.43,1,.25a1.28,1.28,0,0,0,.55-.75c.06-.24,0-.54.15-.67s0-.31-.14-.35S18.59,32,18.32,31.9Z"/><path class="cls-1" d="M21.18,27.48a.26.26,0,0,0,.27-.29.35.35,0,0,0-.22-.35c-.11-.08-.36.13-.38.17s-.1.24,0,.32S21,27.51,21.18,27.48Z"/><path class="cls-1" d="M22.49,27.45c-.3-.13-.62-.3-.73-.23a.48.48,0,0,0-.15.36,3.16,3.16,0,0,0,.14,1,1.68,1.68,0,0,0,.42.56,2.77,2.77,0,0,0,1,.33c.3,0,.45.3.73.29s.4-.12.32-.34-.08-.23,0-.42,0-.35-.13-.61a1.44,1.44,0,0,0-.7-.56C23.06,27.61,22.79,27.58,22.49,27.45Z"/></g></g></svg>