<svg xmlns="http://www.w3.org/2000/svg" viewBox="0 0 56.08 15.42"><defs><style>.cls-1{fill:#472218;}</style></defs><title>Button_Dark</title><g id="Ebene_2" data-name="Ebene 2"><g id="Elements"><path class="cls-1" d="M55.1,9.78c-.37-1.19-1-2.15-.89-3.34s1-3.48,1.11-4.22S55,0,54.43,0,47,.74,45.32.89A82.13,82.13,0,0,1,35.47,1C34.39,1,33,.89,31.57.84c0,0-1.67,1.51-1.57,1A1.6,1.6,0,0,0,29.68.79a42,42,0,0,0-4.58.1c-1.85.22-2.3.74-5.85.22A48.4,48.4,0,0,0,11.47.52C9.32.52,5.91.59,5,.52A20.79,20.79,0,0,0,1.76.59C1,.71,2,3.33,1.76,4.07s-1,2.08-.29,2.67S2,8.89,1.88,9.93a11.05,11.05,0,0,1-.25,1.34h0s1.63,1,1.22,1a8.2,8.2,0,0,0-1.59.43c0,.12-.05.23-.06.31-.1.52-1.66,1.48-1.07,1.77s1.41.08,2.89,0,8.45-.14,9.93,0,5.33.38,7,.38,1.85-.89,5.56-.6,8.74.08,10.81.22,5.41.38,7.93.38,5.7.51,8.37,0,3.33-.75,3.48-1.41S55.47,11,55.1,9.78Z"/></g></g></svg>