<svg xmlns="http://www.w3.org/2000/svg" viewBox="0 0 58.08 17.42"><defs><style>.cls-1{fill:#4a2b28;}.cls-2{fill:#efefef;}</style></defs><title>Element 15</title><g id="Ebene_2" data-name="Ebene 2"><g id="Elements"><path class="cls-1" d="M50.78,16.92c-1,0-2-.07-3-.13s-1.77-.1-2.57-.1c-2.49,0-5.73-.22-8-.38-.66,0-1.62,0-2.87,0H32.49c-2.06,0-4.21,0-6.06-.17Q25.67,16,25.08,16a7.85,7.85,0,0,0-2.54.37,5.06,5.06,0,0,1-1.63.29c-1.59,0-5.47-.22-7-.38-.54,0-1.93-.08-3.94-.08-2.48,0-5.11,0-5.91.08l-1.13.09a9.81,9.81,0,0,1-1,.06,2.17,2.17,0,0,1-1-.2.71.71,0,0,1-.4-.52c-.08-.46.3-.84.73-1.28a2.93,2.93,0,0,0,.47-.54c0-.06,0-.18.07-.3l.05-.19L2,13.32A5.42,5.42,0,0,1,2.85,13l-.49-.32-.3-.19.08-.35a11.18,11.18,0,0,0,.25-1.28c.07-.63.26-2.3-.25-2.76-.79-.7-.35-1.85,0-2.69.07-.18.13-.35.18-.49a5.45,5.45,0,0,0-.14-1.3,3.39,3.39,0,0,1,0-2.22.75.75,0,0,1,.5-.31A19.8,19.8,0,0,1,5,1c.38,0,.75,0,1,0s.89,0,1.6,0L10,1h2.43a49.4,49.4,0,0,1,7.85.6,18.45,18.45,0,0,0,2.49.21,9,9,0,0,0,2-.22c.38-.08.77-.16,1.27-.22s1.66-.11,3.06-.11h1.84l.15.2a2.91,2.91,0,0,1,.34.66c.24-.19.55-.46.81-.69l.15-.13h.2c1.47,0,2.86.12,3.92.2.84.06,1.9.09,3.15.09,2.65,0,5.47-.14,6.62-.24L50,1C53.06.7,55.08.5,55.43.5a1,1,0,0,1,.8.42,3.44,3.44,0,0,1,.58,2.4c-.06.3-.21.81-.39,1.39a20.54,20.54,0,0,0-.71,2.8,4,4,0,0,0,.47,2.06c.14.34.28.69.4,1.06l.16.51a10.18,10.18,0,0,1,.81,3.75c-.23,1-1.29,1.28-3.88,1.79a15.16,15.16,0,0,1-2.89.24Z"/><path class="cls-2" d="M55.43,1c.59,0,1,1.48.89,2.22s-1,3-1.11,4.22.52,2.15.89,3.34,1.11,3.33,1,4-.81.89-3.48,1.41a15,15,0,0,1-2.8.23c-1.92,0-3.89-.23-5.57-.23-2.52,0-5.85-.23-7.93-.38-.69,0-1.71-.05-2.9-.05H32.49c-2,0-4.17,0-6-.17-.53,0-1-.06-1.39-.06-2.41,0-2.77.66-4.17.66-1.63,0-5.48-.23-7-.38-.63-.06-2.23-.08-4-.08-2.4,0-5.08,0-5.94.08S2.44,16,1.92,16a1.58,1.58,0,0,1-.78-.15c-.6-.29,1-1.25,1.06-1.77,0-.08,0-.19.06-.31a8.2,8.2,0,0,1,1.59-.43c.41,0-1.22-1-1.22-1h0a11.05,11.05,0,0,0,.25-1.34c.12-1,.26-2.6-.41-3.19s.07-1.93.29-2.67S2,1.71,2.76,1.59A20.32,20.32,0,0,1,5,1.49c.37,0,.72,0,1,0s.91,0,1.64,0l4.88,0a48.4,48.4,0,0,1,7.78.59,18.12,18.12,0,0,0,2.56.22,22,22,0,0,0,3.29-.44,28.37,28.37,0,0,1,3-.11h1.59A1.6,1.6,0,0,1,31,2.85c0,.07,0,.1.06.1.28,0,1.51-1.11,1.51-1.11,1.43,0,2.82.12,3.9.2.92.06,2,.09,3.19.09,2.64,0,5.47-.14,6.66-.24C48,1.74,54.84,1,55.43,1m0-1c-.38,0-2.31.2-5.45.52L46.23.89c-1.13.1-3.93.24-6.57.24-1.24,0-2.29,0-3.12-.09C35.46,1,34.06.89,32.61.84H32.2l-.3.27-.3.27-.11-.17L31.2.8H29.09A28.34,28.34,0,0,0,26,.9a13.12,13.12,0,0,0-1.31.22,8.84,8.84,0,0,1-1.86.21,17.55,17.55,0,0,1-2.42-.21,50.11,50.11,0,0,0-7.92-.6H10L7.59.55Q6.42.55,6,.52c-.29,0-.66,0-1.08,0A18.76,18.76,0,0,0,2.6.61a1.29,1.29,0,0,0-.83.51,3.59,3.59,0,0,0-.11,2.59A7.64,7.64,0,0,1,1.8,4.83c0,.09-.09.24-.16.41-.33.87-.88,2.32.16,3.25.08.07.3.46.09,2.32,0,.31-.11.71-.23,1.23l-.17.7.22.13L1.42,13l-.13.52c0,.08,0,.16-.05.23S1,14,.89,14.11c-.47.47-1,1-.87,1.71a1.19,1.19,0,0,0,.67.89A2.69,2.69,0,0,0,1.92,17c.32,0,.66,0,1-.06s.69-.07,1.11-.09c.8,0,3.42-.08,5.89-.08,2,0,3.38,0,3.89.08,1.57.16,5.42.38,7.06.38a5.63,5.63,0,0,0,1.77-.31,7.31,7.31,0,0,1,2.4-.35c.39,0,.83,0,1.31.06,1.86.15,4,.17,6.1.17h1.89c1.24,0,2.19,0,2.83,0,2.24.16,5.51.38,8,.38.78,0,1.63,0,2.54.1s2,.13,3,.13a16.3,16.3,0,0,0,3-.25c2.55-.5,4-.77,4.27-2.18.16-.72-.13-1.82-.83-4l-.16-.5c-.12-.4-.27-.75-.41-1.1a3.75,3.75,0,0,1-.44-1.81,21.4,21.4,0,0,1,.7-2.71c.19-.63.34-1.12.4-1.44A3.88,3.88,0,0,0,56.61.61,1.5,1.5,0,0,0,55.43,0Z"/></g></g></svg>