<svg xmlns="http://www.w3.org/2000/svg" viewBox="0 0 57.08 16.42"><defs><style>.cls-1{fill:#cebd8e;stroke:#4a2b28;stroke-miterlimit:10;}</style></defs><title>Element 19</title><g id="Ebene_2" data-name="Ebene 2"><g id="Elements"><path class="cls-1" d="M55.6,10.28c-.37-1.19-1-2.15-.89-3.34s1-3.48,1.11-4.22S55.52.5,54.93.5s-7.41.74-9.11.89A82.13,82.13,0,0,1,36,1.54c-1.08-.08-2.47-.15-3.9-.2,0,0-1.67,1.51-1.57,1a1.6,1.6,0,0,0-.32-1.06,42,42,0,0,0-4.58.1c-1.85.22-2.3.74-5.85.22A48.4,48.4,0,0,0,12,1c-2.15,0-5.56.07-6.52,0a20.79,20.79,0,0,0-3.19.07c-.73.12.23,2.74,0,3.48S1.3,6.65,2,7.24s.53,2.15.41,3.19a11.05,11.05,0,0,1-.25,1.34h0s1.63,1,1.22,1a8.2,8.2,0,0,0-1.59.43c0,.12-.05.23-.06.31C1.6,14.06,0,15,.63,15.31s1.41.08,2.89,0,8.45-.14,9.93,0,5.33.38,7,.38,1.85-.89,5.56-.6,8.74.08,10.81.22,5.41.38,7.93.38,5.7.51,8.37,0,3.33-.75,3.48-1.41S56,11.46,55.6,10.28Z"/></g></g></svg>