<svg xmlns="http://www.w3.org/2000/svg" viewBox="0 0 58.96 57.89"><defs><style>.cls-1{fill:#f7cf2a;}.cls-2{fill:#fcf1c4;}.cls-3{fill:#f39108;}.cls-4{fill:#fffef9;}</style></defs><title>Element 23</title><g id="Ebene_2" data-name="Ebene 2"><g id="Elements"><path class="cls-1" d="M48.72,24.43c1,.42,2-.06,3,.4a.92.92,0,0,0,.43,1.34,2.69,2.69,0,0,1,1.13,2.39,4,4,0,0,0,.65,2.5,2.1,2.1,0,0,1,0,2,.87.87,0,0,1-.92.64.77.77,0,0,1-.73-.82.89.89,0,0,0-.37-.79c.14.61.29,1.15-.17,1.57-.64.38-1.12,0-1.59-.34a10.29,10.29,0,0,1-4-5.16c-.88-.41-1.54-.22-1.63.66-.26,2.46-1.53,4.61-2,7-.07.33-.23.55.22.78.73.37.66,1,.26,1.59a4.82,4.82,0,0,1-1,1.14,2.42,2.42,0,0,0-1,1.86,8,8,0,0,1-.17,4.47,5.74,5.74,0,0,1-2.29,2.82c-.84.23-1.52.8-2.35,1a7.12,7.12,0,0,1-6-1.19,1.55,1.55,0,0,0-1.71-.21c-2.08,1-3.78.48-5.07-1.47-.39-.5-.8-.13-1.19,0a4.36,4.36,0,0,1-3.59.06A5.11,5.11,0,0,1,15,40.2c.35-1.19.35-1.19-.94-1.32a4.85,4.85,0,0,1-4.46-4,2.38,2.38,0,0,1-.23-1.23,4.66,4.66,0,0,1,.22-2.79,4.75,4.75,0,0,0,1.58-1.28,2.44,2.44,0,0,1,1.66-.78c.66-.11,1-.32,1-1.13A3,3,0,0,1,15,25.26a1.17,1.17,0,0,1,1.43-.19,1.09,1.09,0,0,1,.38,1.28c-.19.86-.44,1.71-.67,2.56A8.27,8.27,0,0,0,16,31.75a2.7,2.7,0,0,0,3.39,2,.85.85,0,0,0,.47-.44c.19-.53.48-1,1.11-.73a1.39,1.39,0,0,1,.86,1.62,4.31,4.31,0,0,0,0,2.17,3.09,3.09,0,0,0,2.37,2.5,3.05,3.05,0,0,0,3.2-1.29A7.4,7.4,0,0,0,28,36.6a1,1,0,0,1,1.16-.42,1,1,0,0,1,.73.87c.33,1.83,1.48,2.88,3.23,2.73a7.38,7.38,0,0,0,5.54-3c.88-1.21.82-1.78-.07-3a.83.83,0,0,1-.16-.29,8.58,8.58,0,0,1,1-3,2.9,2.9,0,0,0,.73-3.37c-.68-1.3-1.14-2.75-2.33-3.72s-2.37-2.56-4.08-3.19c-.37-.15-.7-.4-1.06-.58a.87.87,0,0,1-.5-1,.89.89,0,0,1,.82-.78c1.16-.1,2.31-.33,3.19.86a1.58,1.58,0,0,0,1.85.55,2.34,2.34,0,0,1,2.93.89,2.92,2.92,0,0,0,1.14.85A15.15,15.15,0,0,1,46,24.08a5.86,5.86,0,0,0,.31-.61,9.16,9.16,0,0,1,.85-2.59c.28-.41.55-.8,1.14-.67,1.18.7,1,1.83.87,2.9A4.86,4.86,0,0,1,48.72,24.43Z"/><path class="cls-2" d="M46.5,28a10.29,10.29,0,0,0,5.08,5.56c.64-.33,1.11.22,1.6.4,1.35.5,2.83.75,4,1.77.44.47,1.16.36,1.83.84-.89.17-1.67,0-2.27.49-2,.55-4.14.58-6.15,1.21-3.89,1.23-7,3.34-8.71,7.21a15,15,0,0,0-1.12,7.45,4.62,4.62,0,0,1-.18,2,20.19,20.19,0,0,0,.33,2.94c-.76-.66-1-1.54-1.67-2.06a3.24,3.24,0,0,1-1.28-1,14.08,14.08,0,0,0-8.24-5.17,10.65,10.65,0,0,0-6,.89,13.82,13.82,0,0,0-3.29,1.79,9.94,9.94,0,0,1-2.59,1.48L15.39,56l.37-3a3.08,3.08,0,0,1-.32-2,16.78,16.78,0,0,0-1-6.29c-1.72-5.36-7-7.37-11.45-7.14-.7,0-1,.68-1.64.8C1.11,37.77,1.26,36.86,0,37l1.35-.86a8,8,0,0,1,2.37-1.51,15.06,15.06,0,0,0,3.11-2.39c1-1.39,1.92-2.8,1.37-4.69A21.24,21.24,0,0,0,6.92,23.9a1.77,1.77,0,0,1-.25-1.27C6.21,21,4.92,19.89,3.82,18.68,3.46,18.29,3,18,2.63,17.42A16.09,16.09,0,0,1,5.49,18c.5.08,1,.14,1.18-.45,1,.36,2,.28,2.95.69a31.52,31.52,0,0,0,7.62-.85.75.75,0,0,1,.53.08c.61.58.44,3.9-.22,4.39a.55.55,0,0,1-.42,0c-.57-.82-1.43-.75-2.25-.66a13.65,13.65,0,0,1-5.11-.64,17.18,17.18,0,0,1,3.5,3.68A5.43,5.43,0,0,0,14,25.85c.4.5.32,1.13-.2,1.32C12,27.83,11.1,29.42,10,30.84A8.62,8.62,0,0,0,9.8,33.7a2.11,2.11,0,0,1-1.63,1A2.66,2.66,0,0,1,10,34.8c1,2.91,2,3.46,6.46,3.46A6.05,6.05,0,0,0,15.38,43a5,5,0,0,0,3.26,3.33c.14.86,0,1.74.16,2.7.84-.37,1.3-1.13,2-1.52.87-.48,1.59-1.33,2.73-1.19,1.41,2.08,3.19,2.37,5.21.77.42-.32.58-.24.87.1A5.82,5.82,0,0,0,35.91,49a4.64,4.64,0,0,1,2,1.7c0-.81-.64-1.76.2-2.62,2.49-2,3.1-4.15,2-7,.23-.47.66-.39,1.06-.4,2.94-.09,3.49-.72,3.16-3.71a.88.88,0,0,1,.08-.64,2.16,2.16,0,0,1,1.17-1,12.77,12.77,0,0,1,4.66-.93c-1.41-.19-2.7-.84-4.12-1a7.85,7.85,0,0,0-1.75-3.07.47.47,0,0,1-.09-.3C44.22,29.32,45.69,28,46.5,28Z"/><path class="cls-3" d="M1.34,38.39C1.2,37.17,1.84,37,2.92,37c3.63,0,6.93.85,9.59,3.51a12.18,12.18,0,0,1,3.21,7.24,16.47,16.47,0,0,1,0,5.29A2.61,2.61,0,0,1,15,50c.19-.82,0-1-.82-1a13.3,13.3,0,0,1-6.66-1.2C3.52,45.93,1.87,42.52,1.34,38.39Z"/><path class="cls-3" d="M40.53,54.94c-1.2-4.76-.16-12.28,6.32-15.75a21.47,21.47,0,0,1,9.08-2.42c.28,0,.6-.1.76.27A7.66,7.66,0,0,1,50,42c0,.14,0,.23,0,.27,1.33,2,1.37,3.3.16,5a4.57,4.57,0,0,1-5.26,1.82c-1.1-.39-1.31-.09-1.46.94A7.79,7.79,0,0,1,40.53,54.94Z"/><path class="cls-3" d="M17.77,53.82c7.52-7.13,15.56-6.18,21.33,1.68a.7.7,0,0,1,.09.32,16.26,16.26,0,0,1-10.67,1.85,7,7,0,0,1-6.1-5.53A5.29,5.29,0,0,1,17.77,53.82Z"/><path class="cls-2" d="M48,20.42a8.66,8.66,0,0,0-1.33,3.29c-.46.41-.77.1-.93-.27-.47-1.06-1.16-2-1.58-3.08a6,6,0,0,1,2.57-2.91,13.26,13.26,0,0,1-3.72,2.2,11.23,11.23,0,0,0-6-.82,1,1,0,0,1-1.16-.77c-.65-2-1.32-2.27-3.26-1.53-.31.11-.59.32-1,.19A12.37,12.37,0,0,1,28.7,9a8.19,8.19,0,0,1-1.18,5c-1,.18-2,0-2.95.19a.8.8,0,0,1-.78-.32,1,1,0,0,1,.06-1.22c.74-1,1.22-2.07,1.91-3.06A38.88,38.88,0,0,0,27,5.56a1.59,1.59,0,0,1,.52-.81c.75-1.49.53-3.15.85-4.75.6,2.18.72,4.49,1.78,6.53a45.79,45.79,0,0,0,3.35,6,9.78,9.78,0,0,0,7,4.07,14.39,14.39,0,0,0,6.45-1A29.48,29.48,0,0,1,50,14.25c.43.29.77,0,1.11-.19,1.15-.7,2.29-1.4,3.48-2.05-1.09,1.42-2.59,2.47-3.5,4A9.86,9.86,0,0,1,48,20.42Z"/><path class="cls-3" d="M27.48,4.75a12,12,0,0,1-1.32,5.08A23.55,23.55,0,0,0,21,11.25a5.55,5.55,0,0,0-2.71,3.42c-.32.81-.83,1.09-1.62.75-.63-.27-1.32,0-1.93-.29a.51.51,0,0,1-.15-.29,3.11,3.11,0,0,0,0-.32C13.76,6.94,20.27,2,27.48,4.75Z"/><path class="cls-3" d="M33,12.71a15,15,0,0,1-2.89-6.18,7.5,7.5,0,0,1,1.52,2c.25.46.4.66,1,.25,3.27-2.41,6.93-1,7.74,3,.16.79.51.5.92.33A7,7,0,0,1,50,14.25c-.61,1.16-1.85,1.29-2.89,1.74A2.77,2.77,0,0,1,46,15.27a4.06,4.06,0,0,0-4.6-1.15,1.38,1.38,0,0,1-1.73-.49A3.89,3.89,0,0,0,35,12.08C34.32,12.27,33.69,12.58,33,12.71Z"/><path class="cls-3" d="M57.13,35.71a13.47,13.47,0,0,1-5.55-2.17c.09-.58-.36-.94-.55-1.4A1,1,0,0,1,51.12,31c.35-.34.52.27.82.3,1.35.14,1,1.13.86,2a1.37,1.37,0,0,0,.48-2.13,2.85,2.85,0,0,1-.58-1.95c0-1.32-.13-2.52-1.72-2.93-.39-.1-.87-.53-.69-1s.89-.36,1.38-.46c3.49.39,5.68,2.91,5.86,6.72A17.63,17.63,0,0,1,57.13,35.71Z"/><path class="cls-3" d="M7.12,32.59a10.68,10.68,0,0,1-5.77,3.54,7.08,7.08,0,0,1,3.42-5.49c.75-.46.68-.73.1-1.23a5,5,0,0,1-.7-1,4.64,4.64,0,0,1,.29-2.24c.5-.84,1.24-.92,1.84-.14a8.11,8.11,0,0,0,1.55,1.7,1.35,1.35,0,0,1,.44,1.77A19.5,19.5,0,0,0,7.12,32.59Z"/><path class="cls-3" d="M7.12,32.59c-.45-1.09.08-2,.54-2.93a1.1,1.1,0,0,0-.3-1.61,5.69,5.69,0,0,1-1.45-1.64c-.39-.72-.72-.44-1,.09s-.26,1.38-.74,1.94c-1.55-2.48-.24-5.53,2.5-5.81C9,25.79,9.87,30,7.12,32.59Z"/><path class="cls-3" d="M9.34,18.65c-.54-.07-1.08-.16-1.63-.21s-1-.26-1-.9c.86-3,2.73-4.09,5.73-3.35.74.18,1.47.43,2.2.65l.07.09c.08,1-.67,2.06-1.53,1.93a3,3,0,0,0-2.85,1.06C10,18.21,9.55,18.27,9.34,18.65Z"/><path class="cls-3" d="M48,20.42A13.47,13.47,0,0,1,51.13,16c1.25,3.38-.3,6-2.41,8.39a14,14,0,0,0-.14-3A1.61,1.61,0,0,0,48,20.42Z"/><path class="cls-3" d="M23.91,13.59c.74.38,1.48-.14,2.22,0,.46.08.92.13,1.38.19.46-.48.94-.26,1.39,0a5.66,5.66,0,0,1,2,1.94c.22.32.34.71.81.77a4.13,4.13,0,0,1,2.21-.88c1.52-.08,2.21.42,2.4,1.91.09.69.34.81,1,.77,2.05-.11,4.12-.25,6,1,.93-.35,1.23.13,1.26,1A8.38,8.38,0,0,1,46,22.76c.13.37.21.8.67,1-.26.63.22,1.31-.11,2-.42,0-.44-.35-.59-.56A11.42,11.42,0,0,0,42.76,22,8.49,8.49,0,0,1,40,20a1.47,1.47,0,0,0-2.11-.15c-.77.56-1.16.37-1.63-.37a2.82,2.82,0,0,0-3.08-1.23c-.26,0-.55.08-.63.36s.22.43.44.54a12.59,12.59,0,0,1,2.26,1.14,16.49,16.49,0,0,1,5.48,6.8,3.66,3.66,0,0,1-1.06,3.76.61.61,0,0,0-.32.53,2.4,2.4,0,0,1-.82,2c1.17-.2,1.32.32,1.31,1.09,0,2.67-1.82,4-3.86,5.06a6.51,6.51,0,0,1-3.07.79A3.54,3.54,0,0,1,29.23,37c-.05-.49-.35-.44-.6-.27a2.17,2.17,0,0,0-.44.61c-1.1,1.81-2.9,2.57-4.58,1.93a4.12,4.12,0,0,1-2.42-4.8,1.37,1.37,0,0,0-.55-1.63c-.32.39.38.88-.17,1.19a2.86,2.86,0,0,1-1.27.33,4,4,0,0,1-3-.94c-1.34-1.15-.89-2.62-.74-4a24.15,24.15,0,0,1,.8-3.2c.06-.25.16-.53-.08-.72s-.56,0-.81.11a1.89,1.89,0,0,0-.67,2.71c.26.45.53.84-.33.82a4.05,4.05,0,0,0-3.49,1.29,1.22,1.22,0,0,1-.89.38A4.44,4.44,0,0,1,13,27c.69-.26,1.07-.46.36-1.13a2.15,2.15,0,0,1-.53-1.51,2.4,2.4,0,0,1,1.64-3,2.8,2.8,0,0,1,2.59.14c.16.07.38,0,.35-.12-.27-1.26.38-2.43.33-3.66a.56.56,0,0,1,.1-.7,12.06,12.06,0,0,1,5.65-3.61A.45.45,0,0,1,23.91,13.59Z"/><path class="cls-3" d="M46.5,28c-.47.51-.92,1.05-1.42,1.52s-.34.66.07,1a3,3,0,0,1,1.17,2.82c.57.88-.09,1.36-.64,1.83s-.93.62-1,1.27A5.63,5.63,0,0,1,45,38.83a2.58,2.58,0,0,1-2.84,2.43c-.69,0-1.38-.11-2.07-.17a3.57,3.57,0,0,1,1.4-2.18,3.4,3.4,0,0,0,1-1c.14-.26.38-.6.08-.79s-.4.23-.53.45-.29.36-.53.22a.48.48,0,0,1-.16-.68c.87-1.68,1-3.62,1.84-5.3a5.79,5.79,0,0,0,.69-2.86c0-.82,1.52-2.22,2.28-2.05C46.74,27,46.42,27.59,46.5,28Z"/><path class="cls-4" d="M23.54,46.3a40.77,40.77,0,0,0-5,3.78c-.18.18-.63.31-.53-.08.32-1.22-.29-2.58.61-3.69a4.72,4.72,0,0,0,3.8-.5C23.14,45.39,23.42,45.58,23.54,46.3Z"/><path class="cls-4" d="M38.1,48.08l.53,4.08c-.79-1.17-2.07-1.9-2.72-3.16Z"/><path class="cls-4" d="M10,34.8c-1.09.49-2.22.13-3.35.15A14.88,14.88,0,0,1,9.8,33.7C9.72,34.1,10,34.43,10,34.8Z"/><path class="cls-3" d="M50.88,28.93c.17-.37-.17-1.13.38-1.09s.3.8.32,1.25.05.84-.33.81C50.64,29.87,51,29.29,50.88,28.93Z"/><path class="cls-1" d="M23.91,13.59a5.09,5.09,0,0,1-1.7,1c-1.8.6-3.09,1.95-4.45,3.18a22.41,22.41,0,0,1-8.42.88c.21-1.13,1.58-2.49,2.76-2.34s1.92-.54,2.57-1.38a3,3,0,0,1,2.15,0c.5.22.74.1,1-.45a8.08,8.08,0,0,1,7.65-5,.73.73,0,0,1,.72.41A21,21,0,0,1,23.91,13.59Z"/><path class="cls-4" d="M17.08,21.55c-2.57-.17-3.47.44-4.23,2.84A22.8,22.8,0,0,0,8,19.93c.26-.36.52-.17.73-.11a28.45,28.45,0,0,0,7.51,1.08C16.61,20.9,17.29,20.68,17.08,21.55Z"/><path class="cls-4" d="M44.73,36.38a4.76,4.76,0,0,0-.44-.61c-.39-.39-.36-.57.21-.69a2.23,2.23,0,0,0,1.82-1.8c.18-.28.33-.54.77-.37,1.47.55,2.95,1.06,4.44,1.69A23.38,23.38,0,0,0,44.73,36.38Z"/><path class="cls-1" d="M33,12.71a4.69,4.69,0,0,1,4.12-1.39,4,4,0,0,1,2.93,1.93c.2.42.53.51,1,.4,3.14-.77,4.33-.3,6.09,2.34-3.22,1.3-6.48,1.71-9.78.34A9.94,9.94,0,0,1,33,12.71Z"/><path class="cls-4" d="M31.69,16.46c-.33.49-.59.58-.9,0a5,5,0,0,0-3.28-2.65c-.06-1.24.54-2.35.73-3.55a7.67,7.67,0,0,1,.52-2.76A25.24,25.24,0,0,0,31.69,16.46Z"/><path class="cls-4" d="M44.5,20.24l-1.26-1c.13-.45.55-.57.9-.74,1.42-.65,2.7-1.55,4.11-2.25Z"/></g></g></svg>