<svg xmlns="http://www.w3.org/2000/svg" viewBox="0 0 101.26 101.26"><defs><style>.cls-1{fill:#c72626;}.cls-2{fill:#fef2f3;}</style></defs><title>Element 24</title><g id="Ebene_2" data-name="Ebene 2"><g id="Elements"><path class="cls-1" d="M14,99.38,9,94.73c-3.24-2.29-3.39-2.43-3.48-2.51A35.63,35.63,0,0,1,3.36,89.4l-.93-1.24,2.88-2L6,83.87l3-3c1.67-1.53,3.51-3.22,3.72-3.43l4.4-4.61,3-3L22.21,67l3-3.93.49,0,.6-.65,5.76-6c.08-.09.12-.13,3.18-2.64l.55-1.32A1.34,1.34,0,0,1,36,52c-1.76-1.4-2.56-2-2.78-2.25S25.52,42.48,24.4,41A72.26,72.26,0,0,0,18,35.27c-.28-.16-.34-.21-4-4.72-1.13-1.39-2.53-3.13-2.77-3.38S7.07,23.8,4.53,21.78l-3-.55.31-5.52,4.65-5C8.82,7.49,9,7.34,9,7.26a29.63,29.63,0,0,1,2.82-2.19l1.24-.93,2,2.88,2.28.64,3,3c1.52,1.67,3.22,3.51,3.43,3.72l4.61,4.41,3,3,2.87,2.09,3.93,3,0,.49.64.6,6,5.76c.09.08.13.12,2.64,3.18l1.32.55.15.07c.49-.5,1.72-1.56,3.41-3l.46-.39c.33-.3,2.81-3,5-5.38l.19-.2.25-.12,1.74-.89.34-.72.14-.31,3.44-2.83c1.12-1.59,2.34-3.34,2.57-3.72s.52-.8,4.71-3.59L72.41,15l3.4-4.9,1.8-1.93,2.52-1.92L84.69,2l2.54,2.38-.55,2.87L88,8.51,88,10l.81.76.09.13c1.21,1.76,1.23,2.29,1.12,2.8l-.33,1.85.7.65,1.36,2.94-.65,2.44-3.78,3.69-2.12,1.55-1,1.7L81.57,32l-.36.16a10.94,10.94,0,0,0-1,.5C79.88,33,79,34,79,34c-1.41,1.64-3.79,4.39-3.91,4.52s-4.67,5.31-4.67,5.31-3.39,3.47-6.78,6.91c.53.5,1.84,2,3,3.45l.4.47c.3.33,3,2.81,5.38,5l.2.19.12.25c.32.62.68,1.34.89,1.74l.72.34.31.15,2.83,3.43c1.59,1.12,3.34,2.33,3.72,2.57s.79.5,3.59,4.71l1.42,1.06,4.9,3.4,1.93,1.8L95,81.85l4.18,4.55-2.37,2.54L94,88.39,92.75,89.7l-1.45,0-.76.81-.13.09c-1.69,1.16-2.18,1.16-2.48,1.16h-.15l-.17,0-1.85-.33-.65.7L82.17,93.5l-2.44-.65L76,89.07,74.49,87l-1.7-1-3.54-2.62-.16-.37a10.94,10.94,0,0,0-.5-1l-1.34-1.15-4.52-3.91c-.25-.23-5.31-4.66-5.31-4.66l-7.09-7C48.88,67,48.21,67.86,48,68.09c-.07.07-7.22,7.64-8.74,8.77a72.26,72.26,0,0,0-5.7,6.43c-.17.28-.21.34-4.72,4C27.45,88.4,25.71,89.8,25.46,90s-3.37,4.15-5.39,6.69l-.55,3Z"/><path class="cls-2" d="M84.68,4.09,85.6,5l-.55,2.87,1.46,1.36.06,1.46,1.14,1.06s.94,1.38.88,1.65L88.11,16l1.08,1,1,2.18-.4,1.52-3.42,3.32-2.27,1.67L83,27.63l-2.35,3.16a8.18,8.18,0,0,0-1.45.79C78.91,31.85,77.9,33,77.9,33L74,37.51c-.13.13-4.69,5.34-4.69,5.34s-4,4.13-7.76,7.89c.48.5.88.92,1.06,1.09.62.58,2.89,3.31,3.32,3.82s5.5,5.14,5.5,5.14,1.05,2.1,1.14,2.18,1.18.59,1.18.59l2.74,3.33s3.8,2.68,4.09,2.81,3.14,4.4,3.14,4.4l1.63,1.22,4.85,3.37L92,80.33l1.89,2.48,3.29,3.58-.86.92-2.87-.55-1.36,1.46-1.46.06-1.06,1.14a7.2,7.2,0,0,1-1.63.89s0,0,0,0l-2.69-.48-1,1.09-2.18,1-1.52-.4L77.19,88.1l-1.67-2.28-1.89-1.15-3.16-2.35a8.18,8.18,0,0,0-.79-1.45c-.27-.25-1.46-1.26-1.46-1.26l-4.47-3.87-5.34-4.69S54,66.76,50.19,63c-1.36,1.7-3,3.83-3.29,4.1-.41.44-7.21,7.6-8.54,8.59a67.19,67.19,0,0,0-6,6.8c-.2.31-7.52,6.08-7.93,6.52s-5.72,7.1-5.72,7.1l-.39,2-3.66-.21L10,93.56s-3.24-2.28-3.4-2.44-2-2.62-2-2.62l2-1.43.69-2.41,2.76-2.74s3.48-3.17,3.74-3.46l4.42-4.61c.18-.2,3.05-3,3.05-3l2.16-3L26,64.45l1.62-.17L27,63.7l.33-.35,5.75-6c.06-.07,3.33-2.75,3.33-2.75s.56-1.36.69-1.66a10.27,10.27,0,0,1,.94-1.17c-1.66-1.32-3.62-2.87-3.88-3.12-.44-.41-7.6-7.21-8.59-8.53s-6.48-5.86-6.8-6-6.08-7.52-6.52-7.93-7.1-5.72-7.1-5.72l-2-.38.21-3.66L7.7,11.68S10,8.44,10.14,8.28s2.62-2,2.62-2l1.43,2.05L16.6,9l2.74,2.76s3.17,3.48,3.46,3.75,4.42,4.23,4.61,4.41,3.05,3,3.05,3l3,2.16,3.38,2.56L37,29.32l.58-.58.35.33,6,5.75c.07.06,2.75,3.33,2.75,3.33l1.66.69a6.94,6.94,0,0,1,.85.66c.42-.39.76-.72.91-.88.58-.62,3.31-2.89,3.82-3.32s5.14-5.5,5.14-5.5,2.09-1.05,2.18-1.14.59-1.18.59-1.18l3.33-2.74s2.68-3.8,2.81-4.09,4.4-3.14,4.4-3.14l1.22-1.63L77,11l1.64-1.76L81.1,7.38l3.58-3.29M84.7,0l-2,1.88-3.48,3.2L76.8,6.88,76.6,7l-.17.18L74.78,9l-.14.16-.13.18-3.34,4.81L70.3,15.3c-4.23,2.81-4.68,3.29-5,4-.31.47-1.38,2-2.35,3.39l-3,2.49-.52.43-.29.61-.12.26-1.28.64-.49.25-.38.41C54.79,30,52.41,32.61,52,33l-.43.37c-1.2,1-2.11,1.78-2.75,2.35l-.24-.09c-2.33-2.85-2.36-2.88-2.54-3L40,26.9l-.26-.24-.06-.58-1-.79-3.39-2.55-2.81-2c-1.28-1.29-2.77-2.79-3-3l-1.93-1.85-2.65-2.54c-.28-.28-1.9-2-3.33-3.6l0-.05,0,0L18.73,6.89l-.56-.56-.75-.22L16,5.72l-.81-1.17L13.44,2,11,3.87a31.08,31.08,0,0,0-3,2.36c-.15.17-.28.31-2.57,3.55L1.16,14.29l-.74.79L.35,16.17l-.2,3.66L0,22.46l2.59.48,1.3.25c2.77,2.21,5.69,4.56,6.29,5.07.37.42,1.62,2,2.63,3.22,3.58,4.44,3.83,4.73,4.33,5a74,74,0,0,1,6.06,5.35c1.23,1.66,8.87,8.87,8.94,8.94s.68.57,2,1.58l-.14.33c-2.84,2.33-2.87,2.36-3,2.54l-5.73,6-.25.26-.57.06-.79,1L21,66,19,68.84c-1.28,1.28-2.78,2.77-2.95,3l-1.85,1.93-2.54,2.65c-.29.28-2,1.9-3.61,3.33l0,0,0,0L5.17,82.53l-.55.56-.22.75L4,85.23,2.84,86,.3,87.82,2.16,90.3a27,27,0,0,0,2.36,3c.17.15.31.28,3.55,2.57l4.51,4.21.79.74,1.09.07,3.66.2,2.63.15.48-2.59.25-1.3c2.21-2.77,4.55-5.69,5.06-6.29.43-.37,2-1.62,3.23-2.63,4.44-3.58,4.73-3.83,5-4.33a74,74,0,0,1,5.35-6.06c1.66-1.23,8.86-8.87,8.93-8.94s.52-.61,1.37-1.67l5.85,5.74.06.06.06,0L61.74,78l4.52,3.92,1.14,1c.1.19.24.47.32.66l.32.73.64.48,3.16,2.35.11.08.12.07,1.38.85,1.32,1.79.13.17.14.15,3.33,3.41.57.59.8.22,1.52.4,1,.28,1-.45,2.18-1,.53-.25.3-.32,1,.18.29.06h.33c.78,0,1.61-.24,3.33-1.42l.27-.18.22-.24.22-.24h.23l1.23,0,.84-.9L94.5,90l1.25.24,1.62.31,1.13-1.21.86-.92,1.9-2-1.88-2-3.2-3.48-1.8-2.37-.16-.2L94,78.14,92.28,76.5l-.16-.15-.18-.13-4.81-3.33L86,72c-2.81-4.22-3.29-4.68-4-5-.47-.31-2-1.38-3.39-2.35l-2.49-3-.43-.52-.61-.28-.26-.13-.64-1.27L73.9,59l-.41-.37c-2.27-2.08-4.84-4.46-5.27-4.91l-.37-.43c-.86-1-1.55-1.84-2.1-2.46L71.48,45l.06-.06,0-.06,4.66-5.31L80.17,35l1-1.14c.18-.1.45-.23.66-.32l.73-.32.48-.64,2.35-3.16.07-.11.07-.12.85-1.38,1.8-1.32.17-.13.15-.14,3.41-3.33.59-.57.21-.8L93.1,20,93.38,19l-.46-1-1-2.18-.25-.53-.32-.3c.08-.47.16-.89.18-1,.26-1.28-.27-2.37-1.35-3.95L90,9.73l-.24-.22-.23-.22V9.06l-.05-1.23L88.56,7l-.25-.23.24-1.25.31-1.62L87.65,2.76l-.92-.86L84.7,0Z"/></g></g></svg>