<svg xmlns="http://www.w3.org/2000/svg" viewBox="0 0 174.98 175.13"><defs><style>.cls-1{fill:#472218;}</style></defs><title>MapSize_Icon</title><g id="Ebene_2" data-name="Ebene 2"><g id="Elements"><path class="cls-1" d="M171.91,35.19c-1.15-1.19-3.23-2.15-2.77-3.33s3-3.49,3.47-4.23-.93-2.22-2.78-2.22-23.11.74-28.42.89-21.27.37-30.74.15c-3.37-.08-7.71-.15-12.16-.2,0,0-5.21,1.51-4.9,1s-1-1.05-1-1.05c-6,0-11.49,0-14.3.09-5.78.22-7.17.74-18.26.22s-17.57-.59-24.27-.59-17.33.07-20.34,0-8.55,0-9.94.07c-2.29.13.7,2.74,0,3.49s-3,2.07-.92,2.66,1.66,2.15,1.29,3.19a5.68,5.68,0,0,1-.79,1.34h0s5.1,1,3.8,1-4.93.43-4.94.44a2.85,2.85,0,0,0-.21.3C3.42,39-1.43,39.93.42,40.23s4.39.07,9,0,26.35-.15,31,0,16.64.37,21.73.37,5.78-.89,17.33-.6,27.28.08,33.75.23,16.87.37,24.73.37,17.8.52,26.12,0,10.4-.74,10.86-1.41S173.07,36.37,171.91,35.19Z"/><path class="cls-1" d="M171.91,139.34c-1.15-1.19-3.23-2.15-2.77-3.34s3-3.48,3.47-4.22-.93-2.22-2.78-2.22-23.11.74-28.42.89-21.27.37-30.74.15c-3.37-.08-7.71-.15-12.16-.2,0,0-5.21,1.51-4.9,1s-1-1.06-1-1.06c-6,0-11.49,0-14.3.1-5.78.22-7.17.74-18.26.22s-17.57-.59-24.27-.59-17.33.07-20.34,0-8.55,0-9.94.07c-2.29.12.7,2.74,0,3.48s-3,2.08-.92,2.67,1.66,2.15,1.29,3.19a5.89,5.89,0,0,1-.79,1.34h0s5.1,1,3.8,1-4.93.43-4.94.43-.16.23-.21.31c-.31.52-5.16,1.48-3.31,1.77s4.39.08,9,0,26.35-.14,31,0,16.64.37,21.73.37,5.78-.88,17.33-.59,27.28.08,33.75.22,16.87.37,24.73.37,17.8.52,26.12,0,10.4-.74,10.86-1.4S173.07,140.52,171.91,139.34Z"/><path class="cls-1" d="M42,3.06c-1.18,1.16-2.14,3.24-3.33,2.78s-3.48-3-4.22-3.47-2.22.93-2.22,2.78.74,23.11.89,28.42.37,21.27.14,30.74c-.08,3.37-.14,7.71-.19,12.16,0,0,1.51,5.21,1,4.9s-1.06,1-1.06,1c0,6,0,11.49.1,14.3.22,5.78.74,7.17.22,18.26s-.6,17.57-.6,24.27.08,17.33,0,20.34,0,8.55.08,9.94c.12,2.29,2.74-.7,3.48,0s2.07,3,2.67.92,2.15-1.66,3.18-1.29a5.93,5.93,0,0,1,1.35.79h0s1-5.1,1-3.8S45,171,45,171l.3.21c.52.31,1.48,5.16,1.78,3.31s.08-4.39,0-9-.15-26.35,0-31,.37-16.65.37-21.73-.89-5.78-.59-17.33.07-27.28.22-33.75.37-16.87.37-24.73.52-17.8,0-26.12S46.67.52,46,.06,43.19,1.91,42,3.06Z"/><path class="cls-1" d="M144.67,3.21c-1.18,1.16-2.15,3.24-3.33,2.78s-3.48-3-4.22-3.47-2.23.93-2.23,2.77.74,23.12.89,28.43.37,21.27.15,30.74c-.08,3.37-.15,7.71-.2,12.16,0,0,1.51,5.21,1,4.9s-1.05,1-1.05,1c0,6,0,11.49.09,14.3.22,5.78.74,7.17.22,18.26s-.59,17.56-.59,24.27.08,17.33,0,20.34,0,8.55.08,9.94c.12,2.29,2.74-.7,3.48,0s2.07,3,2.66.92,2.15-1.66,3.19-1.29a5.68,5.68,0,0,1,1.34.79h0s1-5.11,1-3.81.44,4.94.44,4.94l.3.22c.52.31,1.48,5.16,1.78,3.31s.07-4.39,0-9-.15-26.35,0-31,.37-16.64.37-21.72-.89-5.78-.59-17.34.07-27.27.22-33.74.37-16.87.37-24.73.52-17.8,0-26.12S149.34.67,148.67.21,145.86,2.06,144.67,3.21Z"/></g></g></svg>