<svg xmlns="http://www.w3.org/2000/svg" viewBox="0 0 455.13 454.02"><defs><style>.cls-1{fill:#472218;}</style></defs><title>Element 28</title><g id="Ebene_2" data-name="Ebene 2"><g id="Elements"><path class="cls-1" d="M148.64,388.18c2.71-4.6,5.58-19.69,12.1-30.95s6.52-16.59,8.89-29.63,9.48-24.88,14.22-33.18c.74-1.29,1.37-2.44,1.94-3.51a72.87,72.87,0,0,1-15.72-15.6s-40,3.55-31.55-4,17-28.92,17-28.92a77.09,77.09,0,0,1-1.39-14.49c0-40.91,33.41-66.78,74.07-71.26a68.69,68.69,0,0,1,13.95-.14c2.12-2.59,4.45-5.29,6.84-8.45,6.41-8.5,13.63-21.93,15.4-27.85s4.15-21.34,10.67-32.6,5.33-19.55,5.33-23.7a25.92,25.92,0,0,1,1.78-7.11,4.17,4.17,0,0,1-1.07-2.43c-1.4-8.57-1-17.65-4.26-25.72-5.58-14-15.71-20.77-30.16-26.41-12.8-5-25.95,0-38.93,0A29.65,29.65,0,0,0,178.64,25.6c-2.09,9.86,4.91,20.52-5.21,29.78-1.19,1.09-.85,2.3-2.37,2.92q-12.19,5-24.23,10.25c-1.41.62-2.07.24-3.47-.36-9.29-4-15.21-11-22.9-16.45A29.48,29.48,0,0,0,82.6,54.49Q68.11,68.44,54.12,82.89c-11,11.35-10.12,24-2.56,39.52,3.85,7.92,10.14,14.4,15.36,21.51h0s9.15.06,10.38,8.5c-1.33-1.88-9.86-3.09-9.9-3.09-3,7.64-3.81,14.53-9.52,23.29-.78,1.19-1.16,2.14-2.63,2.37-8.66,1.4-17.91.79-26,4.25-15.55,6.68-22.72,16.14-26.65,30a74.21,74.21,0,0,0,0,39.18C6.76,263.51,13.45,275.75,27.52,278Q41.8,280.33,56,282.89c.92.17,2.29,1.12,2.42,2.1,1.55,11.5,6.74,16,10.25,23.94.71,1.63.84,2.71-.26,4.21-5.51,7.5-6.37,17.13-16.32,22.66-5.39,3-5.37,10.68-5.44,16.87,0,8.21,4.38,14.14,8.57,21.19,8.6,14.49,21.69,18.85,31.12,28.12,10.79,10.59,24,15.7,35.57,3,6.35-6.93,15.34-10.85,23-16.34A3.29,3.29,0,0,1,148.64,388.18Z"/><path class="cls-1" d="M453.87,207.36c-3.7-13.82-10.39-26.06-23.84-28.51-9.48-1.72-15.07-7.69-28.53-4.79-1.63.35-2.47-.92-3.11-2.55-3.19-8.07-6.49-16.1-10-24a3.39,3.39,0,0,1,.4-3.94c5.61-7.76,10-16.51,16.68-23.37,11.23-11.51,2.34-27.21-2.87-37,0,0-16.42,4.18-15.23-.86s-2.63-18.51-2.64-18.53c-3.8-3.14-7.64-6.24-11.12-9.6-10.79-10.42-29.93-14.91-38.49-2.62-5.53,7.94-14.91,10.57-22.31,15.93a3.7,3.7,0,0,1-4.23.36c-2.51-1.09-4.79-2.26-7.06-3.43-1.83,9.84-6.45,19.51-10.45,31.52-5.33,16-10.07,27.85-16,37.93s-4.74,16.59-9.93,29.35h0c22.75,11.73,37.15,36.87,37.15,64.72,0,17-10.12,37.19-27.27,52.34h0s.11,24.17-8.77,20.61c-9.05-3.62-21-3-21-3v0a85.47,85.47,0,0,1-17,4.15,56.65,56.65,0,0,1-30.71-4.32c-.32,2.49-.5,5-.65,7.44-.46,7.51-13.93,40-16.59,46.32s-11.56,13.23-14.23,21.23c-1.76,5.3-3.35,12.7-5.37,20.61q5.64,2.31,11.3,4.54c1.53.61,2.36,1.43,2.41,3,.55,15.74,2.82,17.5,4.28,26.24,2.57,15.49,14.05,30.1,29,26.47,13.11-3.18,27,.19,40.49,0,14.83-.2,26.25-16.15,29.24-25.2s3.08-18.52,4.79-27.74a4.28,4.28,0,0,1,2.3-2.59c7.9-3.38,17.81-2.79,23.77-10,1.34-1.61,3.08-.63,4.64.5,7.6,5.52,13.9,13.83,22.94,16.38,11.83,3.33,27.77,6.63,38.21-3.82,9-9,15.95-20.62,27-26.95,15.1-8.65,12.57-27,3.36-39.9-5.27-7.36-10.47-14.77-15.79-22.09-1-1.37-1.4-2.6-.39-4,6.29-8.66,6.74-16.2,10.2-24.25a3.94,3.94,0,0,1,2.43-2.1c8.63-1.55,17.52-1.94,26-4.3,17.77-5,29-12.09,27.05-29.88C452.38,234.26,457.34,220.31,453.87,207.36Z"/></g></g></svg>