<svg xmlns="http://www.w3.org/2000/svg" viewBox="0 0 81.78 81.78"><defs><style>.cls-1{fill:#ad7821;}.cls-2{fill:#bf8b40;}.cls-3{fill:#897f89;}.cls-4{fill:#3a3a3a;}.cls-5{fill:#473316;}.cls-6{fill:#524e4e;}</style></defs><title>Ship_2</title><g id="Ebene_2" data-name="Ebene 2"><g id="Elements"><rect class="cls-1" x="4" y="4" width="73.78" height="73.78"/><rect class="cls-2" x="4" y="4" width="7.07" height="73.78"/><rect class="cls-2" x="17.34" y="4" width="7.07" height="73.78"/><rect class="cls-2" x="30.68" y="4" width="7.07" height="73.78"/><rect class="cls-2" x="44.02" y="4" width="7.07" height="73.78"/><rect class="cls-2" x="57.36" y="4" width="7.07" height="73.78"/><rect class="cls-2" x="70.71" y="4" width="7.07" height="73.78"/><circle class="cls-3" cx="54.21" cy="25.18" r="4.85"/><path class="cls-4" d="M54.21,31a5.85,5.85,0,1,1,5.85-5.85A5.85,5.85,0,0,1,54.21,31Zm0-9.71a3.87,3.87,0,1,0,3.86,3.86A3.87,3.87,0,0,0,54.21,21.32Z"/><circle class="cls-4" cx="55.16" cy="23.32" r="0.95"/><circle class="cls-3" cx="67.59" cy="27.17" r="4.85"/><path class="cls-4" d="M72.27,30.68a5.85,5.85,0,1,1-1.17-8.19A5.85,5.85,0,0,1,72.27,30.68Zm-7.76-5.83a3.86,3.86,0,1,0,5.4-.77A3.86,3.86,0,0,0,64.51,24.85Z"/><circle class="cls-4" cx="66.68" cy="25.29" r="0.95"/><circle class="cls-3" cx="61.96" cy="13.79" r="4.85"/><path class="cls-4" d="M58.05,18.13a5.85,5.85,0,1,1,8.26-.43A5.85,5.85,0,0,1,58.05,18.13Zm6.49-7.21a3.86,3.86,0,1,0,.29,5.45A3.86,3.86,0,0,0,64.54,10.92Z"/><circle class="cls-4" cx="63.91" cy="13.04" r="0.95"/><path class="cls-5" d="M77.78,4V77.78H4V4H77.78m4-4H0V81.78H81.78V0Z"/><rect class="cls-6" x="14.85" y="62.02" width="15.28" height="5.35" rx="0.67" transform="translate(-31.72 106.57) rotate(-108.51)"/><path class="cls-4" d="M18.62,58.62a2.67,2.67,0,0,1,4.83.52l3.15,9.42a2.62,2.62,0,0,1-.24,2.21,2.59,2.59,0,0,1-1.44,1.17,2.68,2.68,0,0,1-3.39-1.69l-3.15-9.41a2.64,2.64,0,0,1,.24-2.22m-1.71-1h0a4.66,4.66,0,0,0-.42,3.87l3.16,9.41a4.66,4.66,0,0,0,8.84-3l-3.16-9.41a4.67,4.67,0,0,0-5.9-2.94,4.73,4.73,0,0,0-2.52,2Z"/><rect class="cls-6" x="14.33" y="17.66" width="15.28" height="5.35" rx="0.67" transform="translate(3.3 43.73) rotate(-94.22)"/><path class="cls-4" d="M19.71,13.49a2.67,2.67,0,0,1,4.56,1.69l.73,9.9a2.68,2.68,0,0,1-5.34.4l-.73-9.9a2.67,2.67,0,0,1,.78-2.09m-1.4-1.41h0A4.67,4.67,0,0,0,17,15.72l.73,9.9a4.66,4.66,0,0,0,9.3-.68L26.25,15a4.66,4.66,0,0,0-7.94-3Z"/><circle class="cls-4" cx="32.33" cy="61.4" r="3.08"/><circle class="cls-4" cx="30.68" cy="26.14" r="3.08"/><circle class="cls-4" cx="35.42" cy="20.33" r="3.08"/></g></g></svg>