<svg xmlns="http://www.w3.org/2000/svg" viewBox="0 0 81.78 81.78"><defs><style>.cls-1{fill:#ad7821;}.cls-2{fill:#bf8b40;}.cls-3{fill:#473316;}.cls-4{fill:#ab4717;}.cls-5{fill:#472612;}.cls-6{fill:#524e4e;}.cls-7{fill:#3a3a3a;}</style></defs><title>Ship_3</title><g id="Ebene_2" data-name="Ebene 2"><g id="Elements"><rect class="cls-1" x="4" y="4" width="73.78" height="73.78"/><rect class="cls-2" x="4" y="4" width="7.07" height="73.78"/><rect class="cls-2" x="17.34" y="4" width="7.07" height="73.78"/><rect class="cls-2" x="30.68" y="4" width="7.07" height="73.78"/><rect class="cls-2" x="44.02" y="4" width="7.07" height="73.78"/><rect class="cls-2" x="57.36" y="4" width="7.07" height="73.78"/><rect class="cls-2" x="70.71" y="4" width="7.07" height="73.78"/><path class="cls-3" d="M77.78,4V77.78H4V4H77.78m4-4H0V81.78H81.78V0Z"/><circle class="cls-4" cx="61.08" cy="13.79" r="4.85"/><path class="cls-5" d="M55.94,16.58a5.85,5.85,0,1,1,7.93,2.35A5.86,5.86,0,0,1,55.94,16.58ZM64.47,12a3.86,3.86,0,1,0-1.55,5.23A3.87,3.87,0,0,0,64.47,12Z"/><circle class="cls-5" cx="63.17" cy="13.74" r="0.95"/><circle class="cls-4" cx="50.09" cy="23" r="4.85"/><path class="cls-5" d="M45,25.79a5.85,5.85,0,1,1,7.93,2.35A5.86,5.86,0,0,1,45,25.79Zm8.53-4.63a3.86,3.86,0,1,0-1.55,5.23A3.88,3.88,0,0,0,53.48,21.16Z"/><circle class="cls-5" cx="52.18" cy="22.95" r="0.95"/><circle class="cls-4" cx="64.23" cy="28.23" r="4.85"/><path class="cls-5" d="M66.85,33.46a5.85,5.85,0,1,1,2.61-7.85A5.85,5.85,0,0,1,66.85,33.46ZM62.5,24.78a3.86,3.86,0,1,0,5.18,1.72A3.85,3.85,0,0,0,62.5,24.78Z"/><circle class="cls-5" cx="64.24" cy="26.14" r="0.95"/><rect class="cls-6" x="10.6" y="57.73" width="15.28" height="5.35" rx="0.67" transform="translate(-44.82 58.24) rotate(-71.23)"/><path class="cls-7" d="M18.84,53.22a2.64,2.64,0,0,1,1.86,0,2.68,2.68,0,0,1,1.67,3.39L19.17,66a2.67,2.67,0,0,1-5.06-1.72l3.19-9.4a2.66,2.66,0,0,1,1.54-1.62m-.74-1.84h0a4.67,4.67,0,0,0-2.68,2.82l-3.19,9.4a4.66,4.66,0,0,0,6.15,5.82,4.6,4.6,0,0,0,2.67-2.82l3.2-9.4a4.67,4.67,0,0,0-2.92-5.91,4.61,4.61,0,0,0-3.23.09Z"/><rect class="cls-6" x="23.81" y="58.73" width="15.28" height="5.35" rx="0.67" transform="translate(-36.81 71.42) rotate(-71.23)"/><path class="cls-7" d="M32,54.22a2.64,2.64,0,0,1,1.86,0,2.68,2.68,0,0,1,1.68,3.39L32.38,67a2.67,2.67,0,0,1-1.53,1.62,2.67,2.67,0,0,1-3.53-3.34l3.19-9.4A2.67,2.67,0,0,1,32,54.22m-.74-1.84h0a4.68,4.68,0,0,0-2.67,2.82l-3.19,9.4a4.66,4.66,0,0,0,8.82,3l3.2-9.4a4.66,4.66,0,0,0-6.16-5.82Z"/><circle class="cls-7" cx="40.89" cy="62.53" r="3.08"/></g></g></svg>