<svg xmlns="http://www.w3.org/2000/svg" viewBox="0 0 81.78 81.78"><defs><style>.cls-1{fill:#ad7821;}.cls-2{fill:#bf8b40;}.cls-3{fill:#906514;}.cls-4{fill:#483314;}.cls-5{fill:#473316;}</style></defs><title>Ship_1</title><g id="Ebene_2" data-name="Ebene 2"><g id="Elements"><rect class="cls-1" x="4" y="4" width="73.78" height="73.78"/><rect class="cls-2" x="4" y="4" width="7.07" height="73.78"/><rect class="cls-2" x="17.34" y="4" width="7.07" height="73.78"/><rect class="cls-2" x="30.68" y="4" width="7.07" height="73.78"/><rect class="cls-2" x="44.02" y="4" width="7.07" height="73.78"/><rect class="cls-2" x="57.36" y="4" width="7.07" height="73.78"/><rect class="cls-2" x="70.71" y="4" width="7.07" height="73.78"/><rect class="cls-3" x="10.49" y="9.5" width="15.03" height="13.22" transform="translate(-5.57 10.81) rotate(-29.14)"/><path class="cls-4" d="M20.67,9.06l4.74,8.49L15.33,23.16,10.6,14.67,20.67,9.06m.68-2.38L8.22,14l6.44,11.54,13.13-7.32L21.35,6.68Z"/><polygon class="cls-4" points="15.69 24.59 14.05 23.99 19.97 7.89 21.61 8.49 15.69 24.59"/><polygon class="cls-4" points="26.02 18.8 9.21 15.37 9.56 13.66 26.37 17.08 26.02 18.8"/><rect class="cls-3" x="33.78" y="12.19" width="15.03" height="13.22" transform="translate(2.77 -5.18) rotate(7.42)"/><path class="cls-4" d="M47.64,14.72l-1.25,9.64L35,22.87l1.26-9.64,11.43,1.49m2-1.51L34.7,11.27,33,24.38,47.9,26.32l1.7-13.11Z"/><polygon class="cls-4" points="34.39 24.23 33.43 22.77 47.77 13.37 48.73 14.83 34.39 24.23"/><polygon class="cls-4" points="46.14 25.73 34.68 12.97 35.98 11.8 47.44 24.56 46.14 25.73"/><rect class="cls-3" x="19.13" y="27.24" width="15.03" height="13.22" transform="translate(4.59 -3.16) rotate(7.42)"/><path class="cls-4" d="M33,29.77l-1.25,9.64L20.3,37.92l1.26-9.64L33,29.77m2-1.51-14.9-1.94L18.34,39.43l14.91,1.94L35,28.26Z"/><polygon class="cls-4" points="19.74 39.28 18.78 37.82 33.12 28.41 34.08 29.88 19.74 39.28"/><polygon class="cls-4" points="31.49 40.78 20.02 28.01 21.33 26.85 32.79 39.61 31.49 40.78"/><rect class="cls-3" x="55.7" y="58.64" width="15.03" height="13.22" transform="translate(8.96 -7.62) rotate(7.42)"/><path class="cls-4" d="M69.56,61.18l-1.25,9.63L56.87,69.32l1.26-9.63,11.43,1.49m2-1.51-14.9-1.94-1.71,13.1,14.9,1.94,1.71-13.1Z"/><polygon class="cls-4" points="56.31 70.69 55.35 69.22 69.69 59.82 70.65 61.28 56.31 70.69"/><polygon class="cls-4" points="68.06 72.19 56.59 59.42 57.9 58.26 69.36 71.02 68.06 72.19"/><path class="cls-5" d="M77.78,4V77.78H4V4H77.78m4-4H0V81.78H81.78V0Z"/></g></g></svg>