<svg xmlns="http://www.w3.org/2000/svg" viewBox="0 0 239.49 239.95"><defs><style>.cls-1{fill:none;}.cls-2{fill:#4a2b28;}</style></defs><title>Element 17</title><g id="Ebene_2" data-name="Ebene 2"><g id="Elements"><path class="cls-1" d="M8.61,120a3.9,3.9,0,0,0,3.91,3.91c7.17-.14,14.33-.45,21.61-.69v-6.44c-7.21-.28-14.29-.61-21.37-.79A4.05,4.05,0,0,0,8.61,120Z"/><path class="cls-1" d="M47.13,41.52a3.92,3.92,0,0,0-5.7-.41,3.81,3.81,0,0,0-.32,5.68c5.22,5,10.56,9.91,15.87,14.86l4.53-4.54c-1-1.16-2-2.23-3-3.27C54.75,49.73,51,45.58,47.13,41.52Z"/><path class="cls-1" d="M55.62,119.81a64.12,64.12,0,1,1,64.23,64.41,64.74,64.74,0,0,1-21.23-3.57l-.9,13.16a75.45,75.45,0,0,0,21.82,3.26c42.4.08,77.14-34.7,77.15-77.24,0-42.17-34.7-76.91-76.88-77s-77,34.73-77,77.1a77.55,77.55,0,0,0,48.94,71.76l4.19-12.08A64.12,64.12,0,0,1,55.62,119.81Z"/><path class="cls-1" d="M41.13,198.54a3.78,3.78,0,0,0,5.68.11c5-5.18,9.79-10.49,14.73-15.82l-4.61-4.54c-5.26,4.92-10.55,9.78-15.72,14.75A3.79,3.79,0,0,0,41.13,198.54Z"/><path class="cls-1" d="M166.23,151.32l.18.17A60.81,60.81,0,0,0,175,130.73h-.05A56.83,56.83,0,0,0,176,119.67a56.13,56.13,0,1,0-77.3,52l.67-1.94-.15,2.15a56.12,56.12,0,0,0,67-20.54Zm-63.6-31.52a16.84,16.84,0,0,1,12.8-16.4V74a4.55,4.55,0,1,1,9.1,0v29.46a17,17,0,0,1,11.76,12.23h30.52a4.55,4.55,0,1,1,0,9.1H136.17a16.57,16.57,0,0,1-11.08,11.43l-4-4.17-2.62,5A17,17,0,0,1,102.63,119.8Z"/><path class="cls-1" d="M128.28,120a8.54,8.54,0,1,0-8.62,8.49A8.79,8.79,0,0,0,128.28,120Z"/><path class="cls-1" d="M198.25,41.29a3.74,3.74,0,0,0-5.48-.12c-5,5.23-9.9,10.57-14.51,15.52l4.16,5c5.31-4.94,10.49-9.67,15.57-14.5A3.92,3.92,0,0,0,198.25,41.29Z"/><path class="cls-1" d="M178,182.87c4.84,5.23,9.56,10.41,14.38,15.5a3.91,3.91,0,0,0,5.89.29,3.76,3.76,0,0,0,.17-5.5c-5.22-5-10.57-9.91-15.68-14.69Z"/><path class="cls-1" d="M226,116c-3.1.08-6.2.13-9.31.27-3.77.17-7.55.42-11.3.63v6.31c7.13.27,13.95.55,20.78.76,2.8.08,4.69-1.57,4.73-3.93S228.86,115.87,226,116Z"/><path class="cls-1" d="M122.8,205.67h-6.25c-.27,7-.54,13.84-.8,20.66-.12,2.93,1.51,5,4,5s4.05-1.95,4-4.94c-.07-3.65-.15-7.29-.31-10.94C123.24,212.18,123,208.94,122.8,205.67Z"/><path class="cls-1" d="M119.73,8.6c-2.42,0-4.06,2.07-4,5,.09,3.2.14,6.4.29,9.6.16,3.69.41,7.38.63,11.07h6.28c.26-7,.52-13.87.75-20.7C123.79,10.57,122.16,8.59,119.73,8.6Z"/><path class="cls-2" d="M183.86,120.11a64.12,64.12,0,1,0-87.93,59.53l2.77-8a56.13,56.13,0,1,1,77.3-52,56.83,56.83,0,0,1-1.09,11.06H175a60.81,60.81,0,0,1-8.55,20.76l-.18-.17a56.12,56.12,0,0,1-67,20.54l-.6,8.79a64.14,64.14,0,0,0,85.24-60.54Z"/><path class="cls-2" d="M125.09,136.22a16.57,16.57,0,0,0,11.08-11.43h30.64a4.55,4.55,0,1,0,0-9.1H136.29a17,17,0,0,0-11.76-12.23V74a4.55,4.55,0,1,0-9.1,0v29.4a17.13,17.13,0,0,0,3,33.65l2.62-5ZM111.2,119.88a8.54,8.54,0,1,1,8.46,8.65A8.78,8.78,0,0,1,111.2,119.88Z"/><path class="cls-1" d="M119.73,8.6c-2.42,0-4.06,2.07-4,5,.09,3.2.14,6.4.29,9.6.16,3.69.41,7.38.63,11.07h6.28c.26-7,.52-13.87.75-20.7C123.79,10.57,122.16,8.59,119.73,8.6Z"/><path class="cls-1" d="M47.13,41.52a3.92,3.92,0,0,0-5.7-.41,3.81,3.81,0,0,0-.32,5.68c5.22,5,10.56,9.91,15.87,14.86l4.53-4.54c-1-1.16-2-2.23-3-3.27C54.75,49.73,51,45.58,47.13,41.52Z"/><path class="cls-1" d="M198.25,41.29a3.74,3.74,0,0,0-5.48-.12c-5,5.23-9.9,10.57-14.51,15.52l4.16,5c5.31-4.94,10.49-9.67,15.57-14.5A3.92,3.92,0,0,0,198.25,41.29Z"/><path class="cls-1" d="M8.61,120a3.9,3.9,0,0,0,3.91,3.91c7.17-.14,14.33-.45,21.61-.69v-6.44c-7.21-.28-14.29-.61-21.37-.79A4.05,4.05,0,0,0,8.61,120Z"/><path class="cls-1" d="M41.13,198.54a3.78,3.78,0,0,0,5.68.11c5-5.18,9.79-10.49,14.73-15.82l-4.61-4.54c-5.26,4.92-10.55,9.78-15.72,14.75A3.79,3.79,0,0,0,41.13,198.54Z"/><path class="cls-1" d="M122.8,205.67h-6.25c-.27,7-.54,13.84-.8,20.66-.12,2.93,1.51,5,4,5s4.05-1.95,4-4.94c-.07-3.65-.15-7.29-.31-10.94C123.24,212.18,123,208.94,122.8,205.67Z"/><path class="cls-1" d="M178,182.87c4.84,5.23,9.56,10.41,14.38,15.5a3.91,3.91,0,0,0,5.89.29,3.76,3.76,0,0,0,.17-5.5c-5.22-5-10.57-9.91-15.68-14.69Z"/><path class="cls-1" d="M226,116c-3.1.08-6.2.13-9.31.27-3.77.17-7.55.42-11.3.63v6.31c7.13.27,13.95.55,20.78.76,2.8.08,4.69-1.57,4.73-3.93S228.86,115.87,226,116Z"/><path class="cls-1" d="M41.13,198.54a3.78,3.78,0,0,0,5.68.11c5-5.18,9.79-10.49,14.73-15.82l-4.61-4.54c-5.26,4.92-10.55,9.78-15.72,14.75A3.79,3.79,0,0,0,41.13,198.54Z"/><path class="cls-1" d="M47.13,41.52a3.92,3.92,0,0,0-5.7-.41,3.81,3.81,0,0,0-.32,5.68c5.22,5,10.56,9.91,15.87,14.86l4.53-4.54c-1-1.16-2-2.23-3-3.27C54.75,49.73,51,45.58,47.13,41.52Z"/><path class="cls-1" d="M8.61,120a3.9,3.9,0,0,0,3.91,3.91c7.17-.14,14.33-.45,21.61-.69v-6.44c-7.21-.28-14.29-.61-21.37-.79A4.05,4.05,0,0,0,8.61,120Z"/><path class="cls-1" d="M119.73,8.6c-2.42,0-4.06,2.07-4,5,.09,3.2.14,6.4.29,9.6.16,3.69.41,7.38.63,11.07h6.28c.26-7,.52-13.87.75-20.7C123.79,10.57,122.16,8.59,119.73,8.6Z"/><path class="cls-1" d="M198.25,41.29a3.74,3.74,0,0,0-5.48-.12c-5,5.23-9.9,10.57-14.51,15.52l4.16,5c5.31-4.94,10.49-9.67,15.57-14.5A3.92,3.92,0,0,0,198.25,41.29Z"/><path class="cls-1" d="M226,116c-3.1.08-6.2.13-9.31.27-3.77.17-7.55.42-11.3.63v6.31c7.13.27,13.95.55,20.78.76,2.8.08,4.69-1.57,4.73-3.93S228.86,115.87,226,116Z"/><path class="cls-1" d="M122.8,205.67h-6.25c-.27,7-.54,13.84-.8,20.66-.12,2.93,1.51,5,4,5s4.05-1.95,4-4.94c-.07-3.65-.15-7.29-.31-10.94C123.24,212.18,123,208.94,122.8,205.67Z"/><path class="cls-1" d="M178,182.87c4.84,5.23,9.56,10.41,14.38,15.5a3.91,3.91,0,0,0,5.89.29,3.76,3.76,0,0,0,.17-5.5c-5.22-5-10.57-9.91-15.68-14.69Z"/><path class="cls-2" d="M229.77,107.69c-2.74-.56-5.65-.28-8.48-.3-5.58,0-11.16,0-17,0a86.17,86.17,0,0,0-16.3-39l8-7.45c2.67-2.49,5.39-4.94,8-7.48,3.79-3.67,5.06-8.14,3.46-13.18a12.59,12.59,0,0,0-21.1-5.09c-5.17,5.28-10.08,10.8-15.23,16.34a89.22,89.22,0,0,0-10.91-7L156,45.86,155.1,42a87.37,87.37,0,0,0-23.52-6.89c.06-1.19.12-2.16.16-3.12.26-6.33.66-12.66.73-19C132.55,6.16,127.39.46,121.07,0c-7.23-.49-13,4-13.94,11.07-.34,2.71.11,5.52.13,8.28,0,5.22,0,10.45,0,15.82A85,85,0,0,0,68.34,51.5c-.73-.75-1.36-1.36-2-2C62,44.73,57.64,39.85,53.07,35.21a12.57,12.57,0,0,0-21.1,5,12.08,12.08,0,0,0,3.46,13.19c5.28,5,10.64,9.94,16,15A86.84,86.84,0,0,0,39.62,90.11l3.18,6.71L36.88,99a90.44,90.44,0,0,0-1.79,9c-1.1,0-2.06,0-3,0-6.31-.23-12.63-.59-19-.7a12.75,12.75,0,0,0-13,11c-.76,7,3.42,12.92,10.39,14.22,2.32.43,4.78.11,7.18.12H35.15a85.75,85.75,0,0,0,16.31,38.95L43.41,179c-2.68,2.49-5.39,4.93-8,7.48A12.2,12.2,0,0,0,32,199.68a12.58,12.58,0,0,0,21.11,5c5.17-5.27,10.08-10.8,15.22-16.34a85.05,85.05,0,0,0,20.63,11.48l2.82-8.13a78,78,0,0,1-38.2-32.67H49l1.47-5.73A76.23,76.23,0,0,1,42.8,120c0-42.37,34.75-77.17,77-77.1s76.88,34.8,76.88,77c0,42.54-34.75,77.32-77.15,77.24a75.45,75.45,0,0,1-21.82-3.26l-.6,8.75a92,92,0,0,0,10.78,2.28c-.07,1.19-.15,2.15-.18,3.12-.26,6.42-.64,12.83-.71,19.25a12.68,12.68,0,0,0,11.13,12.67c6.71.66,12.52-3.27,13.88-9.79.53-2.56.25-5.3.27-8,0-5.76,0-11.52,0-17.42a85.47,85.47,0,0,0,38.89-16.33l3.19,3.42c4,4.32,7.92,8.71,12,12.92a11.85,11.85,0,0,0,13,3.15,12.75,12.75,0,0,0,4.67-21.39c-5.3-5-10.65-9.93-16-15A86.39,86.39,0,0,0,204.4,132c1,0,1.87,0,2.74,0,6.58.25,13.16.64,19.75.73a12.81,12.81,0,0,0,12.52-11C240.13,115,236.16,109,229.77,107.69ZM34.13,123.2c-7.28.24-14.44.55-21.61.69A3.9,3.9,0,0,1,8.61,120a4.05,4.05,0,0,1,4.15-4c7.08.18,14.16.51,21.37.79Zm22.8,55.09,4.61,4.54c-4.94,5.33-9.77,10.64-14.73,15.82a4,4,0,0,1-5.6-5.61C46.38,188.07,51.67,183.21,56.93,178.29ZM57,61.65c-5.31-4.95-10.65-9.83-15.87-14.86a3.81,3.81,0,0,1,.32-5.68,3.92,3.92,0,0,1,5.7.41c3.85,4.06,7.62,8.21,11.42,12.32,1,1,1.91,2.11,3,3.27Zm66-27.39h-6.28c-.22-3.69-.47-7.38-.63-11.07-.15-3.2-.2-6.4-.29-9.6-.07-2.92,1.57-5,4-5s4.06,2,4,5C123.46,20.39,123.2,27.22,122.94,34.26Zm55.32,22.43c4.61-4.95,9.5-10.29,14.51-15.52a3.74,3.74,0,0,1,5.48.12,3.92,3.92,0,0,1-.26,5.9c-5.08,4.83-10.26,9.56-15.57,14.5ZM119.71,231.31c-2.45,0-4.08-2.05-4-5,.26-6.82.53-13.64.8-20.66h6.25c.2,3.27.44,6.51.58,9.76.16,3.65.24,7.29.31,10.94C123.76,229.36,122.15,231.32,119.71,231.31Zm78.68-38.15a3.76,3.76,0,0,1-.17,5.5,3.91,3.91,0,0,1-5.89-.29c-4.82-5.09-9.54-10.27-14.38-15.5l4.76-4.4C187.82,183.25,193.17,188.13,198.39,193.16Zm27.73-69.23c-6.83-.21-13.65-.49-20.78-.76v-6.31c3.75-.21,7.53-.46,11.3-.63,3.11-.14,6.21-.19,9.31-.27,2.91-.09,4.93,1.58,4.9,4S228.92,124,226.12,123.93Z"/></g></g></svg>