<svg xmlns="http://www.w3.org/2000/svg" viewBox="0 0 289.14 244.43"><defs><style>.cls-1{fill:#4a2b28;}</style></defs><title>Element 25</title><g id="Ebene_2" data-name="Ebene 2"><g id="Elements"><path class="cls-1" d="M145.62,108.41c.4-4.76.46-9.54.41-14.31a1.68,1.68,0,0,1-.29-.61c-.31-1.44-8,1.11-6.13-4.22a23,23,0,0,1,6.13-8.89h0c0-2-.07-4-.07-5.94,0-14.43,2.12-29.17,0-43.28-1-6.73,0-13.62-.33-20.41-.34-7-5.51-11.55-12-10.63a13.8,13.8,0,0,0-6,2.21,69.61,69.61,0,0,0-7.85,6.93C105.83,22.6,94.8,39.37,78.49,49.37,67.79,55.94,62.76,68,53.57,77a.58.58,0,0,1-.21.12,5.76,5.76,0,0,0,.23,1.22c.9,2.82.87,17.33,0,21.18a125.4,125.4,0,0,0-3,14.52c-.6,5.33,3.26,22.52,3,26.08s-3.56,16-4.74,19.25c-.63,1.73-.76,4.95-.74,7.6,1.33.53,2.58.39,3.68,1.48,7.93,7.88,15.94,15.69,23.92,23.52,3,2.93,6,5.88,9,8.82h0l1.29-.29,9.36-2.09V208a7.72,7.72,0,0,0,2.3,5.5q12.7,12.45,25.44,24.85a27.41,27.41,0,0,0,6.68,4.79c5.53,2.78,10.47,1.08,13.6-4.24,2-3.41,2.21-7.16,2.22-11,0-15.43,4-30.95.05-46.3C139.54,158,143.64,132.38,145.62,108.41Z"/><path class="cls-1" d="M45.57,138.31c-.89-5.63.89-5.93,2.07-12.74,1-5.92,2.51-39.48,2.88-48.26l-1.44,0c-8.09,0-16.18,0-24.27,0-4.44,0-8.9-.15-13.34,0-5.16.2-8.44,2.93-10.34,7.29a7.53,7.53,0,0,0-.6,3v69a7.23,7.23,0,0,1-.26,2c-2,7.06,7.66,8.35,14.3,8.2,9.58-.21,19.94-4.38,29-1.77.43-3.51,1.12-8.82,1.72-11.63A41.4,41.4,0,0,0,45.57,138.31Z"/><path class="cls-1" d="M287.81,95.82c-3-14.11-6.6-28.66-16.23-39.36-11.86-13.19-20.74-26.34-34.86-35.82a143,143,0,0,0-14.46-8.47,10.88,10.88,0,0,0-14.84,5.25c-2.61,5.63-1.18,8.43,4.52,11.18,2.6,1.26,6.23,6.5,8.68,8,17.62,11,30.84,25.92,39.21,45,8.6,19.6,12.11,41,7.89,61.85C264,162,253.9,177.18,241,191a97.18,97.18,0,0,1-28.87,21.13,10.77,10.77,0,0,0-6.39,9.15c-.39,4.2,1.84,6.51,5.34,8.92s7.45,5,11.33,2.93c4.45-2.38,8.39-5.82,12.63-8.56,18.85-12.17,28.49-31,43.09-48.52,12.24-14.65,10.95-29.65,10.95-48.74C289,118.56,289.65,104.33,287.81,95.82Z"/><path class="cls-1" d="M237.7,159.71C245,148.7,246,135.15,246,122h0c1.64-6.42-.85-12.2-2-18.2C242,92.64,236.38,84.68,231.25,73c-5.74-13-18-21.38-30.46-28.37a21.36,21.36,0,0,0-7.64-2.82c-4.94-.59-9.47,3.06-10.93,8.08a10.86,10.86,0,0,0,5.37,12.73c8.71,4.82,17.75,10,22.36,18.89,10.17,19.66,14.06,34.28,12.52,51.32h0l4.28,4.28L221,142.79h0c-2,9.67-5.83,18.94-14.76,24.46-6.36,3.92-10.75,10.24-17.43,13.62-4.86,2.46-7.32,6-7.06,11.33a10.88,10.88,0,0,0,15.92,9.13,107.25,107.25,0,0,0,16.07-10.76C224.22,182.26,230.38,170.83,237.7,159.71Z"/><path class="cls-1" d="M201.53,120.35c-.55-2.92-1.44-7.55-2.4-12.09-3.75-17.66-15-24.29-29.69-29.09-3.56-1.16-7.17-1.33-10.56.63-4.09,2.37-7.8,7.38-5.43,11.49,2.49,4.31,4.23,6.87,8.64,9.09,13.85,7,20.44,17.54,15.27,30-2.86,6.89-8.81,9.46-15.28,13.27-5.14,3-8,7.15-7.71,14,.27,5.74,7.43,9,13.31,7.63a40.6,40.6,0,0,0,15.08-7C194.87,149.29,202.94,137.6,201.53,120.35Z"/><polygon class="cls-1" points="85.97 200.47 85.97 200.47 84.68 200.75 85.97 200.47"/></g></g></svg>