<svg xmlns="http://www.w3.org/2000/svg" viewBox="0 0 81.78 83.11"><defs><style>.cls-1{fill:#0d5c6d;}.cls-2{fill:#17373e;}.cls-3{fill:#1195b2;}.cls-4{fill:#ca9a4f;}.cls-5{fill:#e7ce5f;}</style></defs><title>Element 14</title><g id="Ebene_2" data-name="Ebene 2"><g id="Elements"><path class="cls-1" d="M0,2.52s1.19,33,1.19,36.29-.3,15.86,0,18.38S.3,77,.59,77.63a28.13,28.13,0,0,1,.64,4.15h16L19.56,80l4.59,2.37,23.41.74,19.85-.74,14.37-.74V66.07l-3-2.37,3-1.63V0L50.07.89l-23,.44L24.44,3.41l-3-2.08-19.7.3Z"/><polygon class="cls-2" points="3.95 6.27 3.95 19.11 7.11 22.57 3.95 23.85 4.35 78.47 53.83 78.47 54.62 75.61 58.07 77.78 78.22 78.07 76.74 65.73 76.35 37.78 76.84 6.27 62.42 5.68 60.15 7.95 56.3 5.68 24 4.89 3.16 5.97 3.95 6.27"/><path class="cls-3" d="M11.75,15.75V28s9.68-7.11,10.37-11.16C19.46,15.85,11.75,15.75,11.75,15.75Z"/><path class="cls-3" d="M59.36,16.35s2.66,6.81,4,7.5,2.47-1.18,2.47-1.18v3A18.48,18.48,0,0,0,69.23,28c.82-2.27.6-11.65.6-11.65Z"/><path class="cls-3" d="M69.86,58.81s-9.12,2.28-9.42,9.09a54,54,0,0,0,9.42,0Z"/><path class="cls-3" d="M11.75,58V69.38H16.2l.74-1.26,1.23,1.26h4.74A15.73,15.73,0,0,0,11.75,58Z"/><path class="cls-4" d="M24.89,14.57S22.72,27.6,10.27,32V55.06S23.8,59.51,25.68,70.27c4.25,1.19,6.62.5,6.62.5V66.22l-3.46.2s-1-10.67-13.93-14.72c.3-4.84,0-16.89,0-16.89a19.31,19.31,0,0,0,3.26-2.56c.79-1-.19-1.09-.19-1.09l2.37-.39S27.26,24,28.84,19.21a16.13,16.13,0,0,0,3.46-1L30.42,14Z"/><path class="cls-4" d="M50.27,14l-.84,2.83.42,1.54,2.77-.13S56,30.07,65.56,33.11c.29,1.93.29,19,.29,19S56.7,57.07,54.56,64.81c-1.26.3-3.12.63-3.12.63l-2,.15v1l.76,1-1.08,1v1.18l8.37-.15S61,58.78,70.33,55.59c.23-1,.45-1.78.45-1.78l-2.41-1.88,2.85-1.26V31S56.63,25,56.67,14.59a12.9,12.9,0,0,1-3.86-.26Z"/><path class="cls-5" d="M40.69,6.72s-1.92.14-1.9,1.6,1.9,1.43,1.9,1.43,1.8.1,1.83-1.28S41.7,6.77,40.69,6.72Z"/><path class="cls-5" d="M35.31,10.91s-3.09-.07-3.14,2.28,3.07,4.64,3.48,4.69a8.63,8.63,0,0,0,2-.09A5.66,5.66,0,0,1,36,14.59a2.33,2.33,0,0,1,.91-2.39C37.07,12,37.15,10.91,35.31,10.91Z"/><path class="cls-5" d="M40.65,10.91s-3.14.62-3.09,3.07a4.16,4.16,0,0,0,2.2,3.77c.32.06,2.11,0,2.74,0a.34.34,0,0,0,.32-.23A14.27,14.27,0,0,0,43.41,14C43.66,10.87,41.75,10.66,40.65,10.91Z"/><path class="cls-5" d="M46.3,10.91s-2.3.15-2.23,1.36c0,.62.78.51.66,1.78-.09.92-1,1.87-1.13,2.72-.05.54.89,1.32,2.23,1s3.26-3,3.28-4.21A2.68,2.68,0,0,0,46.3,10.91Z"/><path class="cls-5" d="M34.57,18.57s-1,.24-1,.84a1.11,1.11,0,0,0,1,1l.37,0,12.39,0s1.16-.2,1.16-.92-.29-.86-1.26-.91S34.57,18.57,34.57,18.57Z"/><path class="cls-5" d="M46.06,68.93c.12-.4.44-2.34,0-2.59s-1.93-1.48-2.46-1.77-1.14-1-1.43-1.11a7.47,7.47,0,0,0-1.66.09s-3.11,1-3.37,1.08.89,2.07.89,2.18,1.22.26,1.29.71.19,1.26-.29,1.59-1.15.63-1.45.3-1-.86-1-1.19a1.56,1.56,0,0,1,.67-1,9.09,9.09,0,0,0-.83-2.31c-.07-.09-.47-.13-.7.27s-1.13,1.61-1,2.11.09,1.77.23,2.17A10.85,10.85,0,0,0,35.74,71a2.15,2.15,0,0,0,1.12.62c.19,0,.73-.47.9-.16s-.1,1.08-.06,1.41a5.82,5.82,0,0,0,.57,2,11.54,11.54,0,0,0,2.36.43c.42,0,1.18-.73,1.55-1.11a2.12,2.12,0,0,0,.55-1.44c-.08-.29-.32-.74-.22-.84s.39-.3.64-.12.44,1,1.16.89A2.66,2.66,0,0,0,46.06,71C46.12,70.48,46,69.34,46.06,68.93Zm-5.25,2.89A7.59,7.59,0,0,1,40,72c-.31,0-.32-.42-.29-.68a1.13,1.13,0,0,1,.58-.81c.19,0,.21-.07.4,0s.43.54.47.74S41,71.79,40.81,71.82Zm3.34-2a2.27,2.27,0,0,1-1.34.45c-.34,0-.68-.62-.76-.77a2.13,2.13,0,0,1,.07-1.07c.11-.26,1-.55,1.15-.54a1.21,1.21,0,0,1,1,1A.91.91,0,0,1,44.15,69.78Z"/></g></g></svg>